<?xml version="1.0" encoding="UTF-8" standalone="no"?>
<!-- Created with Inkscape (http://www.inkscape.org/) -->
<svg
   xmlns:dc="http://purl.org/dc/elements/1.1/"
   xmlns:cc="http://creativecommons.org/ns#"
   xmlns:rdf="http://www.w3.org/1999/02/22-rdf-syntax-ns#"
   xmlns:svg="http://www.w3.org/2000/svg"
   xmlns="http://www.w3.org/2000/svg"
   xmlns:sodipodi="http://sodipodi.sourceforge.net/DTD/sodipodi-0.dtd"
   xmlns:inkscape="http://www.inkscape.org/namespaces/inkscape"
   width="339.6926"
   height="382.97397"
   id="svg2"
   sodipodi:version="0.32"
   inkscape:version="0.46dev+devel"
   sodipodi:docbase="/home/wltsang/documents"
   sodipodi:docname="SnEptUne_Vines_Grass01.svg"
   inkscape:output_extension="org.inkscape.output.svg.inkscape"
   version="1.0">
  <defs
     id="defs4" />
  <sodipodi:namedview
     id="base"
     pagecolor="#ffffff"
     bordercolor="#666666"
     borderopacity="1.0"
     gridtolerance="10000"
     guidetolerance="10"
     objecttolerance="10"
     inkscape:pageopacity="0.0"
     inkscape:pageshadow="2"
     inkscape:zoom="0.7"
     inkscape:cx="445.73238"
     inkscape:cy="273.51808"
     inkscape:document-units="px"
     inkscape:current-layer="layer1"
     inkscape:window-width="1152"
     inkscape:window-height="776"
     inkscape:window-x="92"
     inkscape:window-y="0" />
  <metadata
     id="metadata7">
    <rdf:RDF>
      <cc:Work
         rdf:about="">
        <dc:format>image/svg+xml</dc:format>
        <dc:type
           rdf:resource="http://purl.org/dc/dcmitype/StillImage" />
      </cc:Work>
    </rdf:RDF>
  </metadata>
  <g
     inkscape:label="Layer 1"
     inkscape:groupmode="layer"
     id="layer1"
     transform="translate(-401.07875,-111.82284)">
    <g
       id="g2422"
       transform="translate(327.14286,-211.42857)">
      <path
         d="M 187.10857,628.90097 C 182.03081,626.26015 176.90096,623.9542 172.19496,620.5677 C 162.1384,612.86169 153.62999,603.94517 146.24599,593.6705 C 137.77305,581.93696 135.17534,568.49884 134.93089,554.35225 C 136.35822,539.54555 143.95727,527.92106 154.04815,517.53041 C 166.34615,506.89983 180.81572,499.48623 196.63186,495.96639 C 214.14181,492.65091 231.44285,495.4263 248.34644,500.19292 C 263.96673,505.19561 276.8988,514.44365 286.86706,527.31707 C 296.09873,541.48883 293.62658,555.96668 287.78359,570.79326 C 278.72115,588.40365 265.12758,603.03519 252.62092,618.19897 C 238.88635,633.51472 228.12844,650.88612 219.20443,669.32697 C 216.14961,680.93438 209.42738,693.54986 211.08158,705.36955 C 211.22159,706.36995 209.80444,706.56671 209.66658,705.56601 L 209.66658,705.56601 C 207.64531,690.89381 203.53674,680.06538 212.75372,666.05122 C 222.54012,647.62336 235.48797,631.25685 247.21107,614.05151 C 258.08348,598.77111 269.40127,583.56463 277.62126,566.64734 C 282.42147,555.35156 284.49774,544.25794 278.90345,532.7337 C 271.47892,519.86344 260.41815,511.3434 246.52922,506.01661 C 230.77317,500.58871 214.393,498.45252 197.82677,501.32975 C 182.66022,504.71266 168.15752,508.66903 157.15909,520.47892 C 148.26317,530.11414 141.37926,541.05903 140.38402,554.47827 C 139.49603,567.61295 142.99073,579.68826 150.27503,590.71271 C 157.43214,600.24543 165.95688,608.87521 175.70095,615.77505 C 179.72571,618.77099 183.63634,623.14416 188.61502,624.21458 C 192.01804,624.94623 190.19668,630.50702 187.10857,628.90097 z"
         id="path2318"
         style="fill:#000000;fill-opacity:1;fill-rule:nonzero;stroke:none;stroke-width:1px;stroke-linecap:butt;stroke-linejoin:miter;stroke-opacity:1" />
      <path
         d="M 331.16331,357.66884 C 336.13608,355.14846 341.49917,353.97719 346.92256,352.87804 C 358.20787,351.07013 369.59566,351.61871 380.8084,353.52535 C 391.77019,356.5348 399.77691,363.72186 407.16576,371.94826 C 413.67354,380.83036 415.56002,389.75759 411.47568,400.01476 C 406.04542,411.02243 395.06279,417.09583 385.10214,423.4624 C 372.81201,430.81106 360.16337,437.51199 347.61952,444.40736 C 333.17508,451.556 320.23776,460.92484 307.65872,470.88916 C 293.23845,482.83367 281.62225,497.44737 271.75205,513.25513 C 261.9596,528.11735 257.04312,544.92073 254.11129,562.27589 C 251.32709,575.31899 253.95786,587.69094 258.46234,599.93543 C 258.81111,600.88346 257.46895,601.3763 257.12132,600.42784 L 257.12132,600.42784 C 252.55786,587.97723 250.32986,575.1097 250.73113,561.79038 C 252.89741,543.65999 259.28808,527.00009 269.08745,511.55172 C 279.47528,495.67168 290.37138,479.98415 304.74237,467.38174 C 317.06057,456.64697 330.34138,447.01463 344.42139,438.70642 C 356.64915,431.70788 369.06321,424.91848 380.53823,416.71702 C 388.518,410.99275 396.40938,404.9417 401.16487,396.11983 C 403.42731,389.53508 404.05702,383.24681 400.32777,376.94893 C 395.61384,368.53206 388.0073,362.77857 379.16224,359.04752 C 369.01922,354.50647 358.47336,352.99651 347.51119,355.5291 C 342.40425,356.76681 337.27885,358.21547 332.56812,360.59344 C 330.52006,361.62729 329.11693,358.70601 331.16331,357.66884 z"
         id="path2324"
         style="fill:#000000;fill-opacity:1;fill-rule:nonzero;stroke:none;stroke-width:1px;stroke-linecap:butt;stroke-linejoin:miter;stroke-opacity:1" />
      <path
         d="M 301.68202,512.95463 C 303.34259,510.53721 306.47218,509.53249 309.10914,508.33644 C 316.48038,504.87978 322.77052,499.7745 328.64805,494.22723 C 336.65814,486.43295 342.50164,477.09206 347.75032,467.3276 C 352.14266,457.67539 353.98659,447.06824 353.66606,436.51011 C 352.50201,429.27303 351.0948,421.9645 344.47068,418.07478 C 343.5996,417.56328 344.32794,416.32924 345.19679,416.84451 L 345.19679,416.84451 C 353.76275,421.9245 361.83772,425.07253 360.98867,436.81138 C 359.82537,448.20915 355.06739,458.29074 350.01025,468.46239 C 345.17896,478.77001 338.93204,488.33763 331.24766,496.76944 C 325.56178,503.05097 319.60221,509.06447 313.1308,514.54519 C 311.0436,516.34885 308.60863,518.79679 305.92492,519.06333 C 300.69147,519.5831 298.70424,517.28961 301.68202,512.95463 z"
         id="path2326"
         style="fill:#000000;fill-opacity:1;fill-rule:nonzero;stroke:none;stroke-width:1px;stroke-linecap:butt;stroke-linejoin:miter;stroke-opacity:1" />
      <path
         d="M 227.62138,641.33495 C 228.50204,638.0145 231.67746,635.63403 233.89971,632.96665 C 239.44837,625.59542 242.67246,617.25314 245.32338,608.5043 C 247.2432,598.32825 247.08498,588.10926 244.18735,578.1769 C 241.82553,569.88688 237.16861,562.5672 230.93746,556.67465 C 224.27613,550.6626 216.36345,549.89852 207.81093,550.93682 C 201.91726,551.83992 197.00817,554.42305 192.00715,557.46983 C 191.14448,557.99539 190.40132,556.77416 191.2645,556.24946 L 191.2645,556.24946 C 196.40312,553.12585 201.39792,549.67999 207.01688,547.44928 C 217.45982,544.04925 227.66164,543.29982 236.92935,550.29132 C 244.68662,557.5319 249.68779,566.2281 251.74508,576.74268 C 252.89662,587.84583 252.21932,598.78989 248.21842,609.34223 C 245.70998,618.41891 242.76507,627.59897 238.25116,635.87823 C 236.48882,639.14978 234.84976,643.20407 231.33616,644.53022 C 228.09459,645.7537 226.73316,644.68394 227.62138,641.33495 z"
         id="path2372"
         style="fill:#000000;fill-opacity:1;fill-rule:nonzero;stroke:none;stroke-width:1px;stroke-linecap:butt;stroke-linejoin:miter;stroke-opacity:1" />
      <path
         d="M 273.54392,581.18166 C 276.00977,579.18095 277.50423,576.37745 279.13915,573.71152 C 283.36928,566.62363 288.4089,560.09023 293.59785,553.69012 C 301.04539,544.40428 309.34065,535.88161 317.88738,527.61749 C 326.48461,520.81352 333.13831,512.62247 339.7188,503.99051 C 345.74293,494.64924 353.18706,490.65371 363.86576,494.43673 C 369.41798,497.26256 371.28808,502.53667 374.06568,507.6883 C 374.81201,508.28841 375.55833,508.88852 376.30466,509.48863 C 377.09188,510.12163 377.15194,510.3661 376.30536,510.91721 L 376.30536,510.91721 C 375.38223,511.51814 374.45911,512.11907 373.53598,512.72 C 367.99794,516.06046 361.50402,515.82299 355.72481,512.8112 C 353.83937,508.52246 349.03674,509.83471 344.72854,510.66157 C 334.39604,514.47348 326.35807,520.51427 318.88039,528.6445 C 310.37477,536.8683 302.11882,545.34879 294.70749,554.58985 C 289.55737,560.94102 284.55467,567.42394 280.35695,574.45837 C 278.74686,577.08371 276.83374,579.63373 276.04827,582.647 C 275.53074,584.63235 271.95069,582.47436 273.54392,581.18166 z"
         id="path2374"
         style="fill:#000000;fill-opacity:1;fill-rule:nonzero;stroke:none;stroke-width:1px;stroke-linecap:butt;stroke-linejoin:miter;stroke-opacity:1" />
      <path
         d="M 195.08341,501.85833 C 192.70706,501.6525 190.31224,501.36257 187.91355,501.19461 C 180.4937,501.2662 173.26418,503.46966 166.23978,505.66882 C 152.24269,511.37182 139.83666,520.04627 127.78487,529.01773 C 111.40078,541.6018 97.095819,556.56999 86.227426,574.1389 C 78.179739,586.60423 85.755378,600.41007 82.774544,613.04461 C 83.90219,614.70921 85.029836,616.3738 86.157483,618.03839 C 86.724031,618.87471 85.536495,619.67578 84.973174,618.83729 L 84.973174,618.83729 C 83.803747,617.09661 82.63432,615.35593 81.464893,613.61526 C 67.396372,602.83516 75.723336,585.33188 84.743419,573.18274 C 96.328909,555.89812 110.25646,540.44388 126.93189,527.87176 C 139.08756,518.82507 151.60325,510.08341 165.72207,504.33736 C 172.76277,501.04851 179.95046,498.20089 187.6137,496.73123 C 190.27363,496.29733 193.10182,495.84133 195.69135,496.65138 C 199.22917,497.75807 198.77647,502.17821 195.08341,501.85833 z"
         id="path2380"
         style="fill:#000000;fill-opacity:1;fill-rule:nonzero;stroke:none;stroke-width:1px;stroke-linecap:butt;stroke-linejoin:miter;stroke-opacity:1" />
      <path
         d="M 258.52472,628.57912 C 260.99832,625.90604 263.59746,623.31638 266.33537,620.89889 C 273.81683,614.8064 280.26637,607.75783 286.95367,600.82516 C 293.80304,591.84097 302.56094,584.44343 310.81555,576.76077 C 321.14697,567.83149 330.32704,565.49619 343.57791,568.35298 C 345.44694,566.94845 347.31598,565.54392 349.18501,564.13939 C 349.99256,563.53254 350.85079,564.67503 350.04303,565.28159 L 350.04303,565.28159 C 348.1509,566.70242 346.25878,568.12325 344.36665,569.54408 C 341.18923,583.19305 334.69833,589.96244 321.59528,594.86768 C 311.19382,598.24757 301.24154,602.59598 290.95618,606.26286 C 282.408,610.52838 274.0132,614.91627 267.34164,621.91291 C 265.02975,624.50143 262.76154,627.02669 261.64886,630.37275 C 260.84507,632.7899 256.79464,630.44874 258.52472,628.57912 z"
         id="path2394"
         style="fill:#000000;fill-opacity:1;fill-rule:nonzero;stroke:none;stroke-width:1px;stroke-linecap:butt;stroke-linejoin:miter;stroke-opacity:1" />
      <path
         d="M 394.02629,365.70635 C 391.85945,364.54242 389.74308,363.21086 387.56073,362.03376 C 382.567,358.54236 377.09004,355.81372 371.57832,353.25008 C 366.12379,350.48529 360.38374,348.3121 355.17266,345.08865 C 350.77058,342.50634 347.8428,339.02205 346.64119,334.08729 C 347.45382,326.62218 356.04076,325.87958 362.01783,324.78343 C 370.09267,322.93928 378.33884,323.09503 386.54426,323.5396 C 392.26423,323.79789 397.50105,324.96192 401.79267,328.87955 C 406.05332,334.73576 400.72585,338.39613 395.30008,339.6082 C 394.33724,339.99134 393.37439,340.37448 392.41155,340.75761 C 391.47297,341.13109 390.94558,339.80032 391.88522,339.42953 L 391.88522,339.42953 C 392.80038,339.06841 393.71554,338.70729 394.6307,338.34616 C 396.48362,336.40203 398.10318,334.74865 398.04856,332.04724 C 395.2177,328.15589 391.1958,326.17061 386.36768,325.29361 C 378.38688,324.10655 370.27199,324.57037 362.36809,326.16839 C 357.91867,327.62749 353.37334,328.97959 351.2409,333.435 C 351.92215,337.15873 353.86585,339.87038 357.0293,342.22441 C 361.98341,345.59883 367.22834,348.48619 372.70033,350.93613 C 378.13754,353.68136 383.61227,356.41281 389.33684,358.51486 C 391.78248,359.66661 394.45983,360.49075 396.54918,362.24784 C 398.86592,364.19614 396.69299,367.13877 394.02629,365.70635 z"
         id="path2400"
         style="fill:#000000;fill-opacity:1;fill-rule:nonzero;stroke:none;stroke-width:1px;stroke-linecap:butt;stroke-linejoin:miter;stroke-opacity:1" />
    </g>
  </g>
</svg>
