<?xml version="1.0" encoding="utf-8"?>
<!-- Generator: Adobe Illustrator 15.1.0, SVG Export Plug-In . SVG Version: 6.00 Build 0)  -->
<!DOCTYPE svg PUBLIC "-//W3C//DTD SVG 1.1//EN" "http://www.w3.org/Graphics/SVG/1.1/DTD/svg11.dtd">
<svg version="1.1" id="Layer_1" xmlns="http://www.w3.org/2000/svg" xmlns:xlink="http://www.w3.org/1999/xlink" x="0px" y="0px"
	 width="300px" height="300px" viewBox="0 0 300 300" enable-background="new 0 0 300 300" xml:space="preserve">
<rect fill="#FFA300" width="299" height="300"/>
<path fill="#FF6700" d="M289,228.133C289,257.962,278.063,283,264.898,283H36.421C23.254,283,12,257.962,12,228.133V70.597
	C12,40.77,23.254,16,36.421,16h228.478C278.063,16,289,40.77,289,70.597V228.133z"/>
<rect x="30.461" y="27.152" fill="none" width="241.061" height="92.715"/>
<text transform="matrix(1 0 0 1 30.4614 56.7759)"><tspan x="0" y="0" font-family="'MyriadPro-Regular'" font-size="41.7219">1 GB </tspan><tspan x="0" y="28.609" font-family="'MyriadPro-Regular'" font-size="23.8411">Monthly Subscription</tspan><tspan x="0" y="57.219" font-family="'MyriadPro-Regular'" font-size="23.8411">Ubuntu Linux</tspan></text>
<rect x="32.773" y="177.928" fill="none" width="237.748" height="103.9"/>
<text transform="matrix(1 0 0 1 32.7744 192.1289)"><tspan x="0" y="0" font-family="'MyriadPro-Regular'" font-size="20">RAM: 1 GB</tspan><tspan x="0" y="24" font-family="'MyriadPro-Regular'" font-size="20">vCPUs: 1</tspan><tspan x="0" y="48" font-family="'MyriadPro-Regular'" font-size="20">Disk: 40 GB</tspan></text>
<rect y="128" fill="#FFA300" width="299" height="28"/>
<rect x="180" y="177.928" fill-rule="evenodd" clip-rule="evenodd" fill="none" width="108" height="83.072"/>
<text transform="matrix(1 0 0 1 180 203.4873)"><tspan x="0" y="0" font-family="'MyriadPro-Regular'" font-size="36">$22.50</tspan><tspan x="18.814" y="25.2" font-family="'MyriadPro-Regular'" font-size="21">3¢/hour</tspan></text>
</svg>
