<?xml version="1.0" encoding="ISO-8859-1" standalone="yes"?>
<svg width="584.323" height="630.792">
  <defs> 
    <marker id="ArrowEnd" viewBox="0 0 10 10" refX="0" refY="5" 
     markerUnits="strokeWidth" 
     markerWidth="4" 
     markerHeight="3" 
     orient="auto"> 
        <path d="M 0 0 L 10 5 L 0 10 z" /> 
    </marker>
    <marker id="ArrowStart" viewBox="0 0 10 10" refX="10" refY="5" 
     markerUnits="strokeWidth" 
     markerWidth="4" 
     markerHeight="3" 
     orient="auto"> 
        <path d="M 10 0 L 0 5 L 10 10 z" /> 
    </marker> </defs>
<g>
<path style="stroke:none; fill:#af2000;" d="M 186.017 41.09C 215.259 33.1215 178.431 67.9427 184.305 90.8363C 190.182 113.73 223.623 115.17 223.623 115.17C 223.623 115.17 236.419 89.2758 276.905 79.387C 317.39 69.4981 349.4 78.3374 363.456 90.3959C 370.287 85.3621 378.731 77.0815 368.903 60.329C 359.074 43.5792 338.756 29.4041 343.52 22.392C 348.285 15.3799 421.133 63.6841 428.239 92.4849C 435.341 121.283 426.527 133.153 422.664 147.955C 428.865 160.959 428.329 188.977 432.701 196.11C 437.075 203.241 457.424 213.102 453.74 240.458C 450.052 267.817 426.291 275.913 409.508 284.423C 392.725 292.933 387.359 302.552 373.126 306.209C 358.891 309.869 360.383 327.802 369.366 333.54C 373.411 336.122 381.243 337.955 389.587 335.778C 395.096 334.338 400.674 333.852 405.201 329.876C 398.834 320.173 398.426 315.137 403.689 306.557C 408.952 297.976 428.807 294.551 438.636 303.151C 448.464 311.751 444.246 326.843 443.018 326.843C 441.79 326.843 458.456 330.009 458.517 345.531C 458.575 361.052 454.052 362.316 443.695 366.69C 439.102 376.861 431.322 384.447 413.608 381.905C 411.041 386.123 406.233 389.845 398.3 389.642C 400.399 396.402 397.027 400.064 394.157 404.131C 394.751 408.986 393.239 412.19 391.953 413.094C 396.979 422.779 400.696 430.063 396.861 443.158C 393.025 456.256 388.112 464.738 379.509 470.882C 379.179 505.784 342.8 505.879 330.515 505.879C 318.228 505.879 297.969 507.253 283.225 502.338C 268.481 497.425 251.88 492.363 251.88 492.363C 251.88 492.363 215.171 525.028 153.322 534.798C 91.4698 544.569 49.5233 545.354 50.9299 562.736C 52.3371 580.12 89.9672 581.336 93.0856 581.487C 93.9386 578.235 99.2621 561.319 99.2621 561.319C 99.2621 561.319 169.148 604.054 186.764 609.087C 159.441 606.93 100.812 606.301 82.8366 607.288C 82.8366 603.603 82.3284 602.133 83.7656 598.896C 71.1834 596.022 21.3769 589.249 21.7066 570.251C 22.0338 551.254 36.3848 533.452 90.1431 524.852C 143.899 516.249 198.207 501.538 219.754 474.116C 241.302 446.695 248.764 428.593 242.203 406.96C 235.639 385.325 234.38 366.172 244.209 344.056C 254.037 321.942 260.317 306.189 249.27 297.063C 200.009 256.372 204.172 229.157 205.252 200.756C 179.37 182.061 143.401 154.516 139.716 122.572C 136.029 90.6274 174.341 44.2714 186.017 41.09z"/>
<path style="stroke:none; fill:#761600;" d="M 298.292 493.486C 283.402 496.461 253.453 490.947 253.453 490.947C 253.453 490.947 215.171 525.028 153.322 534.798C 91.4698 544.569 70.1867 528.02 44.5773 550.549C 18.9654 573.081 72.7114 590.644 93.0856 581.487C 101.882 594.202 105.126 598.26 129.243 606.978C 109.695 606.711 91.5199 606.812 82.8366 607.288C 82.8366 603.603 82.3284 602.133 83.7656 598.896C 71.1834 596.022 21.3769 589.249 21.7066 570.251C 22.0338 551.254 36.3848 533.452 90.1431 524.852C 143.899 516.249 198.207 501.538 219.754 474.116C 241.302 446.695 248.764 428.593 242.203 406.96C 235.639 385.325 234.38 366.172 244.209 344.056C 254.037 321.942 260.317 306.189 249.27 297.063C 200.009 256.372 204.172 229.157 205.252 200.756C 179.37 182.061 143.401 154.516 139.716 122.572C 136.029 90.6274 174.341 44.2714 186.017 41.09C 170.231 69.1458 165.565 82.0952 171.439 104.989C 173.88 114.498 188.33 156.17 228.211 140.422C 252.542 130.815 223.623 115.17 223.623 115.17C 223.623 115.17 236.419 89.2758 276.905 79.387C 317.39 69.4981 349.583 78.1537 363.456 90.3959C 370.287 85.3621 378.731 77.0815 368.903 60.329C 359.074 43.5792 338.756 29.4041 343.52 22.392C 348.285 15.3799 391.542 59.8257 398.648 88.624C 400.042 94.2744 396.095 97.6621 389.514 99.0842C 382.539 91.6191 367.655 84.5693 356.94 97.4004C 322.703 82.1732 303.859 106.157 299.885 112.399C 290.069 127.815 277.069 155.392 273.817 178.391C 270.563 201.391 265.733 224.677 276.196 228.878C 278.443 229.781 302.049 227.579 307.07 235.266C 310.01 239.763 286.812 246.609 279.694 257.334C 270.631 270.988 287.011 288.397 304.939 293.343C 322.866 298.291 331.431 303.582 345.237 307.153C 359.042 310.722 350.197 318.544 350.197 318.544C 350.197 318.544 332.536 320.641 318.094 313.269C 303.652 305.897 287.288 308.703 279.105 319.876C 270.92 331.048 267.027 357.999 281.237 378.585C 295.447 399.168 311.513 370.574 327.009 387.381C 342.506 404.192 377.239 393.568 380.262 395.234C 386.886 398.886 390.883 401.197 392.816 403.273C 395.773 406.454 394.316 408.664 393.36 411.003C 391.776 414.871 361.224 440.508 343.236 444.598C 325.247 448.688 314.911 456.503 320.324 465.584C 327.503 477.627 341.96 479.706 350.804 477.856C 359.646 476.006 379.801 470.248 379.595 470.248C 379.391 470.248 380.007 479.296 374.865 488.757C 369.723 498.218 330.649 503.564 330.649 503.357C 330.649 503.153 307 491.747 298.292 493.486z"/>
<path style="stroke:none; fill:#761600;" d="M 411.662 301.185C 410.185 313.231 418.931 328.043 427.551 332.745C 416.384 336.86 417.157 347.461 423.011 355.986C 428.863 364.513 444.327 365.18 443.934 366.552C 443.544 367.923 425.629 366.124 418.841 361.342C 412.052 356.56 407.346 375.741 415.428 381.94C 415.206 382.333 413.953 381.61 413.938 381.58C 412.281 383.551 407.723 391.809 395.524 388.849C 384.827 386.251 369.293 365.764 379.912 357.073C 377.828 354.113 376.041 352.945 373.388 349.374C 370.39 345.339 369.668 339.606 372.479 335.108C 377.762 336.626 381.346 337.318 388.781 335.886C 396.216 334.454 402.446 332.581 405.272 329.669C 402.715 325.287 400.349 324.049 400.429 315.036C 400.508 306.023 406.958 302.165 411.662 301.185z"/>
<path style="stroke:#000000; stroke-width:4.1415000000000006; fill:none;" d="M 398.371 390.107C 400.364 397.316 396.458 400.814 394.029 404.23C 394.928 407.758 394.794 409.699 391.797 413.25C 396.979 422.779 400.696 430.063 396.861 443.158C 393.025 456.256 388.112 464.738 379.509 470.882C 379.179 505.784 342.8 505.879 330.515 505.879C 318.228 505.879 297.969 507.253 283.225 502.338C 268.481 497.425 265.723 481.667 251.88 492.363C 251.88 492.363 215.171 525.028 153.322 534.798C 91.4698 544.569 49.5233 545.354 50.9299 562.736C 52.3371 580.12 89.4912 581.351 93.0856 581.487C 94.1654 577.533 99.2621 561.319 99.2621 561.319C 99.2621 561.319 169.148 604.054 186.764 609.087C 159.441 606.93 100.812 606.301 82.8366 607.288C 82.8366 603.603 82.3284 602.133 83.7656 598.896C 71.1834 596.022 21.3769 589.249 21.7066 570.251C 22.0338 551.254 36.3848 533.452 90.1431 524.852C 143.899 516.249 198.207 501.538 219.754 474.116C 241.302 446.695 248.764 428.593 242.203 406.96C 235.639 385.325 234.38 366.172 244.209 344.056C 254.037 321.942 260.317 306.189 249.27 297.063C 200.009 256.372 204.172 229.157 205.252 200.756C 179.37 182.061 143.401 154.516 139.716 122.572C 136.029 90.6274 174.341 44.2714 186.017 41.09C 215.259 33.1215 178.431 67.9427 184.305 90.8363C 190.182 113.73 223.623 115.17 223.623 115.17C 223.623 115.17 236.419 89.2758 276.905 79.387C 317.39 69.4981 351.227 78.3374 364.916 91.6719M 363.456 90.5771C 370.287 85.5433 378.731 77.0815 368.903 60.329C 359.074 43.5792 338.756 29.4041 343.52 22.392C 348.285 15.3799 421.133 63.6841 428.239 92.4849C 435.341 121.283 426.527 133.153 422.664 147.955C 428.865 160.959 428.329 188.977 432.701 196.11C 437.075 203.241 457.424 213.102 453.74 240.458C 450.052 267.817 426.291 275.913 409.508 284.423C 392.725 292.933 390.742 301.769 373.126 306.209C 355.51 310.649 359.19 342.845 389.438 335.73C 396.377 333.996 401.683 333.598 405.154 330.127"/>
</g>
<g>
<g>
<path style="stroke:#000000; stroke-width:4.1415000000000006; fill:#fff700;" d="M 341.743 566.78C 306.562 564.925 267.893 556.277 238.09 535.989C 243.803 515.909 257.639 481.981 257.639 481.981C 266.342 487.783 282.747 495.014 298.782 493.355C 306.796 486.039 317.095 483.57 322.582 485.586C 328.069 487.602 330.259 490.141 330.231 494.551C 336.183 496.758 340.93 493.808 345.596 492.645C 350.892 486.605 359.84 483.899 372.985 487.76C 372.985 487.76 371.533 497.913 379.874 508.431C 388.215 518.947 412.214 518.147 440.858 519.959C 429.819 529.644 426.65 536.55 433.308 541.015C 423.794 534.939 406.271 528.622 387.128 529.462C 354.129 530.912 342.106 556.99 341.743 566.78z"/>
<path style="stroke:#000000; stroke-width:4.1415000000000006; fill:#ffffff;" d="M 413.308 560.153C 418.687 566.906 452.746 567.39 460.704 567.873C 476.857 568.852 505.039 568.016 515.041 555.276C 517.724 551.858 523.619 542.43 513.297 536.409C 502.975 530.389 489.427 523.077 465.559 521.142C 450.745 519.941 449 520.067 439.323 520.281C 429.648 520.497 408.441 554.04 413.308 560.153z"/>
<path style="stroke:#000000; stroke-width:4.1415000000000006; fill:none;" d="M 511.276 535.641C 505.842 540.464 502.713 548.475 463.913 548.475C 455.26 548.475 441.779 546.776 432.631 544.622"/>
<path style="stroke:#000000; stroke-width:4.1415000000000006; fill:#ffffff;" d="M 433.982 541.04C 424.149 535.495 406.946 528.644 387.802 529.488C 354.803 530.937 342.78 557.015 342.418 566.806C 307.237 564.951 267.938 555.673 238.135 535.385C 236.031 542.779 234.312 548.875 235.191 551.219C 238.452 559.922 271.489 574.478 304.687 581.905C 337.885 589.33 408.884 586.755 428.465 578.779C 437.126 575.25 441.576 570.755 443.735 566.4C 449.849 554.065 440.964 544.977 433.982 541.04z"/>
<path style="stroke:#000000; stroke-width:4.1415000000000006; fill:#ffffff;" d="M 274.715 516.226C 274.715 522.531 271.059 527.649 266.556 527.649C 262.053 527.649 258.397 522.531 258.397 516.226C 258.397 509.921 262.053 504.804 266.556 504.804C 271.059 504.804 274.715 509.921 274.715 516.226z"/>
<path style="stroke:#000000; stroke-width:4.1415000000000006; fill:none;" d="M 330.024 494.392C 330.92 527.937 363.592 525.501 392.693 529.372"/>
<path style="stroke:#000000; stroke-width:4.1415000000000006; fill:none;" d="M 440.836 546.477C 425.963 571.432 395.466 567.173 356.666 567.173C 351.788 567.173 346.802 567.047 341.743 566.78"/>
<path style="stroke:#000000; stroke-width:4.1415000000000006; fill:none;" d="M 298.765 493.536C 294.171 510.966 294.116 517.349 301.961 523.208C 309.806 529.067 318.132 531.043 326.765 531.919C 334.044 528.282 341.393 524.839 348.944 522.637"/>
<path style="stroke:#000000; stroke-width:4.1415000000000006; fill:none;" d="M 312.293 522.951C 318.9 518.705 326.292 517.288 333.372 517.132"/>
<path style="stroke:#000000; stroke-width:4.1415000000000006; fill:none;" d="M 304.269 511.469C 314.495 507.85 318.271 506.906 327.394 506.435"/>
<path style="stroke:#000000; stroke-width:4.1415000000000006; fill:none;" d="M 360.429 518.861C 366.562 514.301 370.338 513.828 376.788 512.884"/>
<path style="stroke:#000000; stroke-width:4.1415000000000006; fill:none;" d="M 350.832 508.638C 358.382 504.389 364.518 504.548 371.281 504.704"/>
<path style="stroke:#000000; stroke-width:4.1415000000000006; fill:none;" d="M 345.669 492.434C 339.659 507.347 343.696 517.034 347.451 520.847C 351.204 524.663 362.835 526.009 371.468 526.885C 378.746 523.248 387.671 518.391 395.222 516.188"/>
</g>
</g>
<g>
<path style="stroke:#000000; stroke-width:4.1415000000000006; fill:none;" d="M 413.85 381.741C 397.779 376.156 390.85 367.823 389.775 355.895C 388.952 346.731 395.318 343.074 403.988 345.302"/>
<path style="stroke:#000000; stroke-width:4.1415000000000006; fill:none;" d="M 442.844 327.203C 434.141 335.179 426.882 332.989 418.896 331.746C 407.019 329.896 402.463 339.198 404.748 348.11C 407.804 360.038 427.463 366.924 443.783 366.562"/>
<path style="stroke:#000000; stroke-width:4.1415000000000006; fill:none;" d="M 389.063 354.461C 376.194 354.617 372.2 363.949 380.435 376.3C 387.123 386.329 402.591 397.444 413.628 381.912C 434.755 385.29 440.627 372.416 443.629 366.37C 453.649 362.927 458.557 360.34 458.484 345.448C 458.424 333.072 449.287 329.236 442.809 326.875C 445.925 322 446.262 309.864 438.636 303.151C 428.833 294.523 408.708 298.334 402.72 307.911C 396.735 317.485 402.551 327.935 408.685 333.409"/>
<g>
<path style="stroke:#000000; stroke-width:4.1415000000000006; fill:none;" d="M 242.12 406.819C 272.579 433.29 293.779 422.885 305.747 427.961C 317.712 433.038 332.969 437.848 348.561 435.864C 364.154 433.881 387.105 418.374 391.786 413.346"/>
<path style="stroke:#000000; stroke-width:4.1415000000000006; fill:none;" d="M 362.789 413.389C 381.646 413.024 389.056 408.262 394.24 404.008"/>
<path style="stroke:#000000; stroke-width:4.1415000000000006; fill:none;" d="M 379.788 356.877C 370.202 343.658 353.381 345.948 342.503 348.848C 331.623 351.75 313.911 365.474 306.658 368.011C 299.406 370.551 284.177 369.099 282.725 352.782"/>
</g>
<g>
<path style="stroke:#000000; stroke-width:4.1415000000000006; fill:#fff700;" d="M 449.159 329.636C 448.688 330.107 470.56 309.992 470.56 309.992C 470.56 309.992 495.472 330.011 518.318 325.66C 541.164 321.308 558.48 296.172 562.618 290.979C 552.754 295.069 542.722 299.477 524.953 296.577C 528.217 300.566 531.119 305.643 531.119 305.643C 531.119 305.643 527.13 312.532 511.175 312.894C 495.218 313.257 481.803 298.752 481.803 298.752C 481.803 298.752 505.371 279.533 505.371 279.533C 505.371 279.533 511.9 287.149 511.9 287.149C 514.075 276.996 517.339 268.292 523.503 257.414C 511.538 262.128 504.284 265.39 492.681 266.48C 494.116 268.484 495.208 269.631 496.308 270.467C 494.893 271.458 473.1 288.599 473.1 288.599C 473.1 288.599 465.846 283.522 465.121 275.181C 464.396 266.842 476.726 256.012 477.514 255.698C 480.502 258.529 483.615 262.128 483.615 262.128C 483.615 262.128 486.943 244.674 502.834 228.767C 488.015 232.61 470.963 243.534 466.211 246.899C 468.063 248.218 469.858 249.738 471.602 250.729C 459.768 257.814 453.156 271.557 452.793 279.17C 452.431 286.786 460.407 297.302 460.769 297.302C 461.134 297.302 447.893 307.679 443.803 310.878C 445.814 317.56 444.797 323.611 443.086 327.296C 445.472 327.94 447.523 328.879 449.159 329.636z"/>
<path style="stroke:#000000; stroke-width:4.1415000000000006; fill:#fff700;" d="M 287.559 426.006C 286.616 426.32 250.091 449.964 248.638 453.591C 247.189 457.215 255.167 468.458 260.606 468.096C 266.045 467.731 306.159 436.403 313.554 431.055C 305.278 427.103 299.797 425.93 287.559 426.006z"/>
</g>
</g>
<g>
<g>
<path style="stroke:#000000; stroke-width:4.1415000000000006; fill:none;" d="M 294.33 126.146C 303.393 96.7737 325.514 89.8849 337.479 104.027"/>
<path style="stroke:#000000; stroke-width:4.1415000000000006; fill:#ffffff;" d="M 332.038 123.568C 346.724 121.391 366.127 156.243 370.841 166.758C 375.555 177.274 391.51 218.614 367.214 228.767C 342.919 238.92 332.395 233.131 327.681 231.319C 322.967 229.504 311.714 217.889 307.362 196.855C 303.011 175.824 305.563 152.216 309.187 143.15C 312.814 134.084 317.352 125.743 332.038 123.568z"/>
<path style="stroke:none; fill:#000000;" d="M 350.172 177.274C 353.074 173.287 363.217 168.747 370.116 175.462C 377.015 182.177 381.364 199.136 380.209 208.39C 379.053 217.642 375.741 223.144 371.752 226.051C 367.763 228.958 365.764 229.854 360.325 230.579C 354.886 231.304 345.458 216.074 345.096 206.284C 344.733 196.493 347.27 181.263 350.172 177.274z"/>
<path style="stroke:none; fill:#ffffff;" d="M 361.627 177.342C 363.768 176.539 367.201 181.762 368.83 186.654C 370.456 191.547 368.986 198.501 365.764 198.798C 362.54 199.093 364.053 194.15 362.46 187.948C 360.864 181.746 358.82 178.394 361.627 177.342z"/>
</g>
<g>
<path style="stroke:#000000; stroke-width:4.1415000000000006; fill:#ffffff;" d="M 366.097 124.676C 363.741 114.704 376.29 109.439 392.969 130.832C 409.649 152.228 420.882 171.11 421.244 188.879C 421.607 206.646 412.543 208.461 405.29 208.461C 398.038 208.461 392.599 201.207 387.158 190.691C 381.719 180.176 381.356 172.197 376.642 155.156C 371.928 138.114 368.455 134.648 366.097 124.676z"/>
<path style="stroke:none; fill:#000000;" d="M 395.499 165.309C 399.267 163.184 409.362 167.01 415.088 177.473C 419.442 185.426 420.328 192.096 419.457 199.548C 418.478 207.912 405.096 210.824 397.845 205.385C 390.593 199.946 390.244 189.071 390.055 184.009C 389.866 178.95 388.404 169.308 395.499 165.309z"/>
<path style="stroke:none; fill:#ffffff;" d="M 401.129 168.991C 402.803 167.888 406.563 170.408 408.901 174.274C 411.237 178.137 411.328 184.364 408.632 185.24C 405.934 186.116 406.271 181.598 403.709 176.609C 401.149 171.621 398.937 170.433 401.129 168.991z"/>
<path style="stroke:#000000; stroke-width:4.1415000000000006; fill:none;" d="M 357.423 97.1361C 369.754 82.9937 392.433 86.6331 422.53 147.914"/>
</g>
<g>
<path style="stroke:none; fill:#761600;" d="M 382.607 223.914C 365.462 233.509 361.214 242.162 361.372 249.398C 361.528 256.634 376.001 248.769 376.63 249.083C 377.259 249.398 391.731 255.217 395.192 253.802C 384.654 249.239 379.305 245.623 378.047 240.43C 376.788 235.24 382.607 223.914 382.607 223.914z"/>
<path style="stroke:#000000; stroke-width:4.1415000000000006; fill:none;" d="M 387.523 219.701C 401.663 211.36 415.805 215.712 420.157 222.241C 424.509 228.767 424.146 239.283 415.805 245.809C 407.467 252.338 394.049 255.237 387.158 253.063C 380.269 250.885 378.457 247.624 374.83 249.798C 371.203 251.975 361.05 254.875 361.413 248.348C 361.775 241.822 365.039 236.018 369.029 233.481"/>
</g>
<path style="stroke:#000000; stroke-width:4.1415000000000006; fill:none;" d="M 421.607 261.039C 410.366 261.039 404.202 276.633 391.51 286.061C 378.819 295.487 362.865 302.379 344.008 296.215C 325.152 290.048 311.734 274.456 298.317 274.456"/>
<g>
<path style="stroke:none; fill:#761600;" d="M 166.314 157.248C 166.846 156.628 166.743 155.927 166.021 155.295C 165.293 154.659 164.492 154.622 163.986 155.201C 163.558 155.69 163.605 156.142 164.188 156.968L 164.555 157.489C 164.828 157.875 164.855 158.12 164.657 158.347C 164.401 158.64 163.937 158.581 163.501 158.2C 163.233 157.965 163.074 157.689 163.063 157.448C 163.064 157.291 163.106 157.17 163.27 156.923L 162.745 156.464C 162.137 157.207 162.24 157.908 163.057 158.623C 163.845 159.312 164.685 159.362 165.213 158.76C 165.62 158.294 165.582 157.808 165.092 157.116L 164.713 156.585C 164.391 156.135 164.333 155.852 164.526 155.631C 164.777 155.345 165.195 155.384 165.601 155.739C 166.001 156.089 166.064 156.45 165.789 156.788L 166.314 157.248z"/>
<path style="stroke:none; fill:#761600;" d="M 168.341 157.483L 167.846 157.05L 165.111 160.177L 165.606 160.61L 168.341 157.483zM 169.411 156.26L 168.91 155.821L 168.362 156.448L 168.863 156.886L 169.411 156.26z"/>
<path style="stroke:none; fill:#761600;" d="M 169.188 158.224L 166.453 161.351L 166.954 161.789L 168.672 159.826C 169.068 159.373 169.715 159.296 170.121 159.651C 170.491 159.974 170.501 160.384 170.151 160.784L 168.267 162.938L 168.768 163.376L 170.486 161.413C 170.882 160.96 171.529 160.883 171.935 161.238C 172.299 161.556 172.31 161.977 171.965 162.37L 170.081 164.524L 170.582 164.963L 172.634 162.618C 173.124 162.057 173.073 161.465 172.489 160.953C 172.071 160.588 171.711 160.494 171.11 160.59C 171.218 160.094 171.092 159.732 170.687 159.377C 170.269 159.012 169.859 158.927 169.261 159.068L 169.648 158.626L 169.188 158.224z"/>
<path style="stroke:none; fill:#761600;" d="M 175.442 163.537C 174.565 162.77 173.486 162.932 172.567 163.982C 171.649 165.032 171.626 166.118 172.515 166.896C 173.392 167.663 174.477 167.506 175.375 166.48C 176.32 165.4 176.343 164.325 175.442 163.537zM 175.046 164.002C 175.607 164.492 175.539 165.244 174.861 166.02C 174.219 166.754 173.466 166.916 172.917 166.436C 172.362 165.951 172.424 165.194 173.086 164.436C 173.744 163.684 174.491 163.516 175.046 164.002z"/>
<path style="stroke:none; fill:#761600;" d="M 177.476 165.474L 174.741 168.601L 175.242 169.039L 176.751 167.315C 177.309 166.677 178.009 166.551 178.522 167C 178.916 167.344 178.958 167.802 178.629 168.178L 176.734 170.344L 177.229 170.778L 179.296 168.415C 179.75 167.896 179.655 167.222 179.052 166.695C 178.587 166.288 178.132 166.206 177.476 166.401L 177.936 165.876L 177.476 165.474z"/>
<path style="stroke:none; fill:#761600;" d="M 184.224 171.619L 183.748 171.898C 183.897 171.428 183.803 171.03 183.474 170.742C 182.675 170.043 181.252 170.189 180.495 171.054C 179.952 171.674 179.958 172.511 180.513 172.997C 180.829 173.273 181.2 173.366 181.736 173.308C 181.523 173.659 181.614 174.013 181.99 174.342C 182.432 174.728 182.947 174.873 183.564 174.782C 184.227 174.687 184.834 174.365 185.242 173.9C 186.301 172.689 186.032 170.673 184.641 169.457C 183.931 168.836 182.924 168.47 181.981 168.488C 180.932 168.508 179.874 168.994 179.191 169.776C 178.032 171.1 178.308 173.217 179.818 174.537C 180.259 174.924 180.815 175.252 181.385 175.466L 181.568 174.92C 180.959 174.63 180.572 174.386 180.249 174.104C 178.984 172.998 178.779 171.27 179.776 170.13C 180.872 168.877 182.903 168.747 184.162 169.848C 185.302 170.845 185.532 172.521 184.66 173.517C 184.049 174.216 182.964 174.456 182.457 174.013C 182.296 173.872 182.263 173.633 182.388 173.489C 182.435 173.436 182.553 173.349 182.721 173.253L 184.719 172.053L 184.224 171.619zM 183.105 171.093C 183.439 171.385 183.464 171.85 183.164 172.156C 182.891 172.444 182.292 172.805 181.95 172.895C 181.569 172.993 181.222 172.944 181.002 172.75C 180.674 172.463 180.682 171.923 181.027 171.53C 181.612 170.861 182.603 170.655 183.105 171.093z"/>
<path style="stroke:none; fill:#761600;" d="M 187.825 172.368L 184.02 176.717L 184.467 177.109L 184.817 176.709C 184.737 177.282 184.902 177.732 185.338 178.113C 186.161 178.833 187.288 178.628 188.196 177.59C 189.083 176.576 189.118 175.501 188.295 174.78C 187.865 174.404 187.42 174.299 186.879 174.448L 188.32 172.801L 187.825 172.368zM 187.792 175.162C 188.347 175.648 188.282 176.444 187.63 177.19C 187.009 177.9 186.216 178.06 185.673 177.585C 185.148 177.125 185.22 176.345 185.862 175.611C 186.504 174.877 187.267 174.703 187.792 175.162z"/>
<path style="stroke:none; fill:#761600;" d="M 189.891 181.854L 192.626 178.727L 192.131 178.294L 190.581 180.066C 190.022 180.704 189.323 180.83 188.804 180.376C 188.41 180.031 188.368 179.573 188.697 179.197L 190.633 176.984L 190.138 176.55L 188.029 178.961C 187.575 179.48 187.671 180.154 188.279 180.686C 188.739 181.088 189.172 181.182 189.825 181.026L 189.444 181.462L 189.891 181.854z"/>
<path style="stroke:none; fill:#761600;" d="M 197.091 180.474L 196.596 180.04L 195.182 181.658C 195.249 181.159 195.061 180.699 194.644 180.334C 193.832 179.624 192.732 179.81 191.861 180.806C 190.937 181.862 190.887 182.967 191.728 183.703C 192.158 184.079 192.597 184.178 193.205 184.026L 192.845 184.437L 193.286 184.824L 197.091 180.474zM 194.32 180.872C 194.857 181.342 194.78 182.117 194.127 182.863C 193.496 183.585 192.732 183.759 192.207 183.3C 191.658 182.82 191.717 182.018 192.354 181.29C 192.99 180.562 193.777 180.397 194.32 180.872z"/>
<path style="stroke:none; fill:#761600;" d="M 197.28 182.798L 196.785 182.365L 194.05 185.492L 194.545 185.925L 197.28 182.798zM 198.35 181.575L 197.849 181.137L 197.301 181.763L 197.802 182.202L 198.35 181.575z"/>
<path style="stroke:none; fill:#761600;" d="M 200.168 185.325L 199.772 185.778C 199.845 185.189 199.692 184.75 199.292 184.4C 198.498 183.706 197.356 183.928 196.468 184.942C 196.02 185.456 195.791 185.993 195.787 186.516C 195.79 186.982 195.988 187.43 196.317 187.717C 196.71 188.061 197.131 188.134 197.756 187.986L 197.615 188.147C 197.244 188.57 196.966 188.78 196.69 188.844C 196.397 188.914 196.046 188.797 195.742 188.53C 195.515 188.332 195.364 188.095 195.321 187.868C 195.286 187.679 195.311 187.554 195.443 187.343L 194.936 186.899C 194.473 187.536 194.625 188.29 195.359 188.932C 195.824 189.34 196.354 189.54 196.776 189.467C 197.266 189.389 197.699 189.074 198.341 188.34L 200.628 185.726L 200.168 185.325zM 198.944 184.906C 199.481 185.376 199.4 186.106 198.716 186.888C 198.064 187.634 197.345 187.805 196.82 187.346C 196.277 186.871 196.351 186.124 197.014 185.367C 197.671 184.615 198.413 184.442 198.944 184.906z"/>
<path style="stroke:none; fill:#761600;" d="M 199.975 189.579L 199.354 189.036L 198.811 189.657L 199.432 190.2L 199.975 189.579z"/>
<path style="stroke:none; fill:#761600;" d="M 206.71 188.888L 206.215 188.454L 204.8 190.071C 204.868 189.573 204.68 189.113 204.262 188.748C 203.451 188.038 202.351 188.224 201.479 189.22C 200.555 190.276 200.505 191.381 201.347 192.117C 201.776 192.493 202.216 192.593 202.823 192.44L 202.463 192.851L 202.905 193.238L 206.71 188.888zM 203.939 189.286C 204.476 189.756 204.398 190.531 203.746 191.277C 203.114 191.999 202.351 192.173 201.825 191.714C 201.276 191.234 201.335 190.432 201.972 189.704C 202.609 188.976 203.396 188.811 203.939 189.286z"/>
<path style="stroke:none; fill:#761600;" d="M 207.551 194.837C 207.969 194.36 208.183 194.042 208.297 193.731C 208.544 193.041 208.338 192.313 207.753 191.801C 206.882 191.039 205.736 191.217 204.838 192.243C 203.941 193.269 203.93 194.377 204.807 195.144C 205.523 195.771 206.374 195.798 207.094 195.227L 206.593 194.789C 206.095 195.081 205.627 195.05 205.227 194.7C 204.911 194.424 204.768 194.046 204.83 193.637C 204.868 193.354 204.982 193.138 205.248 192.823L 207.551 194.837zM 205.615 192.427C 206.163 191.885 206.844 191.817 207.345 192.255C 207.834 192.684 207.855 193.418 207.406 193.931C 207.396 193.943 207.385 193.955 207.369 193.962L 205.615 192.427z"/>
</g>
</g>
</svg>
